<svg xmlns="http://www.w3.org/2000/svg" viewBox="0 0 64 64" role="img" aria-label="Computer Server Labs">
  <defs>
    <linearGradient id="blue" x1="12" y1="8" x2="52" y2="56" gradientUnits="userSpaceOnUse">
      <stop stop-color="#3b82f6"/>
      <stop offset="1" stop-color="#2563eb"/>
    </linearGradient>
  </defs>
  <rect width="64" height="64" rx="14" fill="#000"/>
  <path d="M32 6 L54 18 V46 L32 58 L10 46 V18 Z" fill="none" stroke="url(#blue)" stroke-width="2.5"/>
  <rect x="14" y="22" width="14" height="5" rx="1" fill="#374151" stroke="#1f2937"/>
  <rect x="15" y="23.5" width="2" height="2" rx="0.5" fill="#3b82f6"/>
  <rect x="14" y="29" width="14" height="5" rx="1" fill="#374151" stroke="#1f2937"/>
  <rect x="15" y="30.5" width="2" height="2" rx="0.5" fill="#3b82f6"/>
  <rect x="14" y="36" width="14" height="5" rx="1" fill="#374151" stroke="#1f2937"/>
  <rect x="15" y="37.5" width="2" height="2" rx="0.5" fill="#3b82f6"/>
  <path d="M30 20 h12 l4 6 v18 l-4 6 H30 l-4-6 V26 Z" fill="#1f2937" stroke="#3b82f6" stroke-width="1.5"/>
  <path d="M32 28 h8 v14 h-8 Z" fill="url(#blue)" opacity="0.9"/>
  <rect x="34" y="30" width="2" height="2" fill="#93c5fd"/>
  <rect x="37" y="33" width="2" height="2" fill="#bfdbfe"/>
</svg>
